<?xml version="1.0" encoding="UTF-8"?>
<svg width="42px" height="42px" viewBox="0 0 42 42" version="1.1" xmlns="http://www.w3.org/2000/svg" xmlns:xlink="http://www.w3.org/1999/xlink">
    <!-- Generator: Sketch 48.2 (47327) - http://www.bohemiancoding.com/sketch -->
    <title>42px_alert--orange--primary</title>
    <desc>Created with Sketch.</desc>
    <defs></defs>
    <g id="Assets-portal" stroke="none" stroke-width="1" fill="none" fill-rule="evenodd" transform="translate(-42.000000, -174.000000)">
        <g id="42px_alert--orange--primary" transform="translate(42.000000, 174.000000)">
            <path d="M21,42 C9.40202025,42 0,32.5979797 0,21 C0,9.40202025 9.40202025,0 21,0 C32.5979797,0 42,9.40202025 42,21 C42,32.5979797 32.5979797,42 21,42 Z M25.2505262,29.1970483 L24.3840518,28.4110987 C23.8995245,28.9735347 23.3480656,29.538162 22.8373477,29.9216411 C22.3273573,30.3065811 22.0836386,30.5059902 21.8035441,30.5059902 C21.4710682,30.5059902 21.3059215,30.3394507 21.3059215,30.0063718 C21.3059215,29.8274148 21.3692156,29.4826489 21.4965313,28.9691521 L23.3720737,21.1337612 C23.6259776,20.1111502 23.7540208,19.2528875 23.7540208,18.5604338 C23.7540208,17.8957367 23.6070621,17.3647095 23.3138722,16.9680825 C23.0206823,16.5714556 22.6190922,16.3720465 22.1091018,16.3720465 C21.3692156,16.3720465 20.5085613,16.7387255 19.527139,17.4735445 C18.5449892,18.2076331 17.4806298,19.322279 16.3333333,20.8152909 L17.2078104,21.5778665 C17.5904851,21.0534132 17.9789799,20.6085774 18.3747499,20.2433592 C18.7705199,19.8788715 18.9378491,19.7554277 19.1670174,19.7554277 C19.3707226,19.7554277 19.4347442,20.1206459 19.4347442,20.3770291 C19.4347442,20.6319514 19.4281965,20.4800206 19.3445319,20.8634997 L18.179775,25.899128 C17.5606568,28.5754469 17.250734,30.1458851 17.250734,30.6089818 C17.250734,31.2787919 17.4420713,31.8317322 17.824746,32.2692636 C18.2074207,32.706795 18.7050433,32.9259259 19.3161587,32.9259259 C20.9996362,32.9259259 23.0315951,31.7294712 25.2505262,29.1970483 Z M23.6776314,8.03703704 C22.8868189,8.03703704 22.2298698,8.37668995 21.7075116,9.05599577 C21.1844259,9.73384073 20.9232468,10.5592338 20.9232468,11.5321751 C20.9232468,12.1472025 21.1080365,12.6533949 21.4783433,13.0500218 C21.8471952,13.4473792 22.3259023,13.6445971 22.9130096,13.6445971 C23.6521683,13.6445971 24.296022,13.3056746 24.8438434,12.6270992 C25.3923922,11.9492542 25.6666667,11.1355481 25.6666667,10.1889026 C25.6666667,9.52201418 25.4884247,8.9982913 25.1312131,8.61335133 C24.7740016,8.2291418 24.2902019,8.03703704 23.6776314,8.03703704 Z" id="Combined-Shape" fill="#E59D27" fill-rule="evenodd"></path>
            <rect id="Rectangle-11" x="0" y="0" width="42" height="42"></rect>
        </g>
    </g>
</svg>